<?xml version="1.0" standalone="no"?>
<!DOCTYPE svg PUBLIC "-//W3C//DTD SVG 20010904//EN"
 "http://www.w3.org/TR/2001/REC-SVG-20010904/DTD/svg10.dtd">
<svg version="1.0" xmlns="http://www.w3.org/2000/svg"
 width="1344.000000pt" height="1344.000000pt" viewBox="0 0 1344.000000 1344.000000"
 preserveAspectRatio="xMidYMid meet">
<metadata>
Created by potrace 1.14, written by Peter Selinger 2001-2017
</metadata>
<g transform="translate(0.000000,1344.000000) scale(0.100000,-0.100000)"
fill="#000000" stroke="none">
<path d="M3567 11384 c-1 -1 -42 -5 -92 -8 -49 -3 -101 -8 -115 -10 -41 -7
-103 -17 -139 -22 -19 -2 -37 -6 -40 -8 -4 -3 -26 -7 -49 -11 -23 -3 -60 -12
-82 -20 -22 -8 -40 -12 -40 -10 0 2 -26 -5 -57 -16 -32 -11 -58 -19 -58 -18 0
3 -109 -33 -120 -40 -5 -3 -15 -6 -20 -7 -6 -1 -32 -11 -57 -23 -26 -11 -49
-21 -53 -21 -20 0 -338 -168 -343 -182 -2 -4 -10 -8 -18 -8 -8 0 -14 -4 -14
-10 0 -5 -6 -10 -12 -10 -7 0 -37 -18 -65 -40 -29 -22 -53 -36 -53 -32 0 4 -4
2 -8 -3 -4 -6 -52 -47 -107 -90 -94 -76 -301 -276 -355 -345 -14 -17 -32 -39
-41 -48 -23 -24 -134 -176 -131 -180 1 -1 -6 -11 -16 -22 -10 -11 -25 -33 -33
-48 -8 -15 -17 -29 -20 -32 -22 -18 -149 -268 -203 -400 -28 -69 -85 -231 -92
-262 -1 -5 -2 -9 -3 -10 -2 -2 -4 -14 -6 -28 -6 -32 -13 -64 -15 -67 -3 -3 -3
-6 -13 -48 -10 -44 -18 -86 -23 -125 -8 -53 -12 -75 -14 -75 -1 0 -3 -16 -5
-35 -1 -19 -5 -48 -9 -65 -3 -16 -8 -52 -11 -80 -4 -27 -8 -61 -10 -75 -8 -49
-15 -96 -20 -135 -2 -22 -6 -49 -9 -60 -2 -11 -7 -45 -10 -76 -4 -31 -9 -67
-11 -80 -3 -13 -7 -41 -10 -64 -11 -79 -17 -123 -29 -202 -3 -16 -7 -50 -11
-78 -3 -27 -8 -61 -10 -75 -9 -51 -35 -236 -40 -280 -3 -25 -8 -56 -10 -70 -6
-35 -18 -132 -19 -152 0 -10 -3 -18 -6 -18 -3 0 -6 -15 -7 -32 0 -18 -6 -69
-13 -113 -7 -44 -14 -91 -15 -105 -2 -14 -4 -25 -5 -25 -1 0 -3 -20 -5 -45 -2
-25 -4 -45 -5 -45 -1 0 -3 -11 -5 -25 -2 -14 -7 -47 -10 -75 -4 -27 -8 -61
-10 -75 -2 -14 -4 -25 -5 -25 -1 0 -3 -13 -5 -30 -3 -33 -14 -116 -21 -155 -4
-26 -12 -82 -19 -135 -2 -16 -4 -30 -5 -30 -1 0 -3 -11 -4 -25 -5 -46 -18
-145 -22 -165 -2 -11 -7 -40 -10 -65 -3 -25 -7 -56 -10 -70 -2 -14 -6 -45 -10
-70 -3 -25 -7 -56 -10 -70 -2 -14 -7 -43 -10 -65 -15 -114 -21 -156 -38 -270
-2 -16 -7 -52 -11 -80 -3 -27 -8 -57 -10 -65 -2 -8 -6 -40 -9 -70 -4 -30 -8
-68 -11 -85 -10 -63 -15 -91 -20 -130 -3 -22 -8 -55 -11 -73 -3 -17 -7 -49 -9
-70 -3 -20 -8 -53 -11 -72 -7 -47 -14 -97 -19 -145 -3 -22 -7 -51 -9 -65 -2
-14 -7 -45 -10 -70 -4 -25 -9 -56 -11 -70 -5 -30 -12 -78 -20 -145 -4 -27 -9
-63 -12 -80 -2 -16 -6 -43 -9 -60 -2 -16 -6 -46 -9 -65 -3 -19 -8 -55 -11 -80
-11 -92 -13 -106 -18 -130 -4 -23 -7 -42 -22 -145 -2 -16 -6 -46 -8 -65 -3
-19 -7 -48 -10 -65 -23 -130 -24 -451 -1 -523 3 -7 7 -34 11 -60 3 -26 8 -50
11 -55 2 -4 7 -20 9 -35 8 -44 68 -227 77 -230 4 -2 5 -8 1 -13 -3 -5 0 -9 7
-9 7 0 10 -3 6 -6 -14 -14 151 -300 214 -370 11 -11 19 -23 19 -27 0 -3 10
-17 22 -30 13 -13 44 -45 69 -73 40 -43 139 -134 188 -172 35 -27 141 -102
145 -102 2 0 34 -19 72 -41 37 -23 72 -42 78 -44 6 -1 33 -12 59 -24 50 -23
169 -69 200 -77 9 -2 27 -7 40 -10 39 -9 42 -10 62 -17 18 -5 58 -13 125 -23
197 -30 417 -23 630 19 93 18 321 101 388 140 20 12 43 22 51 24 9 1 17 7 19
12 2 6 8 11 14 11 12 0 148 88 163 105 6 6 17 16 27 21 39 22 143 120 481 457
198 196 364 357 370 357 6 0 8 2 5 5 -3 3 154 164 349 358 195 193 381 379
414 411 l59 60 1998 1 1997 0 757 -755 c755 -753 808 -805 883 -869 50 -42
231 -161 245 -161 5 0 10 -5 10 -10 0 -6 3 -9 8 -8 4 0 43 -16 87 -36 120 -56
176 -78 232 -91 10 -2 43 -11 73 -19 292 -79 650 -66 954 36 50 17 96 34 101
38 6 5 19 10 30 12 11 1 22 5 25 8 3 3 37 21 75 40 148 72 282 170 411 296
123 121 160 166 284 354 23 35 90 175 90 189 0 6 5 11 11 11 6 0 9 6 6 14 -3
8 1 20 9 27 8 6 12 14 10 17 -3 2 -1 13 5 24 6 11 12 27 14 36 2 9 15 56 28
103 14 47 27 103 31 125 3 21 8 50 10 63 21 99 22 391 2 496 -2 11 -7 45 -11
75 -11 78 -13 92 -30 210 -8 58 -17 121 -20 140 -2 19 -7 50 -10 68 -15 93
-29 197 -29 230 -1 12 -3 22 -6 22 -3 0 -6 15 -7 33 -1 17 -4 48 -7 67 -4 19
-9 53 -11 75 -7 56 -13 83 -21 97 -5 7 -3 8 6 3 9 -5 11 -4 6 4 -5 7 -10 27
-12 44 -2 18 -7 46 -9 62 -3 17 -7 48 -10 70 -3 22 -8 55 -10 73 -30 205 -39
268 -37 276 2 4 -2 14 -8 20 -5 7 -7 15 -5 18 3 3 1 36 -5 74 -7 38 -14 87
-16 109 -3 22 -7 54 -9 70 -8 53 -24 159 -30 205 -4 25 -8 54 -10 65 -1 11 -6
43 -10 70 -3 28 -13 95 -21 150 -8 55 -17 118 -20 140 -7 57 -13 96 -19 128
-3 15 -7 51 -10 80 -2 29 -4 52 -5 52 -4 0 -21 117 -35 230 -2 22 -7 52 -10
67 -7 38 -14 84 -20 138 -5 51 -11 90 -20 139 -3 19 -8 53 -10 75 -3 23 -7 57
-10 76 -3 19 -7 47 -8 62 -1 16 -4 28 -7 28 -3 0 -5 11 -5 25 1 14 -5 62 -12
108 -7 45 -14 94 -15 110 0 15 -4 27 -7 27 -3 0 -6 15 -6 33 -1 31 -11 115
-20 167 -3 14 -7 44 -10 68 -3 24 -7 53 -10 65 -2 12 -7 45 -10 72 -6 49 -10
80 -20 140 -3 17 -7 48 -10 70 -3 22 -8 56 -10 75 -3 19 -8 53 -10 75 -2 22
-7 51 -10 65 -3 14 -8 45 -11 70 -3 25 -7 56 -10 70 -2 14 -7 45 -10 70 -3 25
-7 56 -9 70 -4 25 -12 83 -20 137 -4 32 -14 98 -20 128 -3 19 -33 161 -40 195
-2 8 -14 51 -27 95 -14 44 -25 82 -25 85 -1 3 -6 16 -11 30 -6 14 -25 63 -43
110 -37 97 -148 325 -184 379 -14 19 -25 41 -25 48 0 7 -4 13 -8 13 -5 0 -19
19 -32 43 -13 23 -29 47 -34 54 -28 32 -36 43 -36 48 0 4 -6 12 -12 20 -7 7
-22 25 -32 40 -11 14 -27 35 -35 45 -9 10 -36 42 -61 71 -65 76 -204 215 -280
279 -36 30 -67 57 -70 60 -10 11 -147 108 -215 153 -38 26 -76 52 -82 57 -7 6
-13 7 -13 3 0 -4 -4 -3 -8 2 -14 19 -311 169 -332 167 -3 0 -13 4 -24 10 -37
20 -175 66 -180 60 -3 -3 -6 -1 -6 5 0 6 -12 13 -27 16 -16 3 -55 13 -88 21
-125 33 -283 63 -375 72 -30 3 -66 8 -80 11 -23 5 -6407 13 -6413 7z m1151
-2054 c1 -30 2 -62 2 -70 0 -48 0 -173 -1 -225 -1 -74 -1 -69 0 -190 3 -326 3
-382 1 -405 -1 -14 -2 -32 -2 -40 1 -55 1 -187 1 -253 0 -42 2 -81 5 -85 3 -5
302 -8 665 -8 434 1 661 -2 662 -9 0 -5 1 -153 2 -328 2 -275 0 -320 -13 -326
-8 -4 -308 -6 -667 -6 l-652 1 -1 -41 c0 -22 -1 -69 0 -105 0 -36 0 -92 -1
-125 -1 -73 -1 -67 0 -190 3 -326 3 -382 1 -405 -3 -34 -3 -47 -1 -105 1 -27
2 -120 1 -206 l-1 -155 -327 1 c-180 1 -330 3 -333 3 -3 1 -6 293 -7 650 0
356 -1 654 -1 662 -1 14 -72 16 -657 15 -361 0 -659 2 -663 5 -12 8 -21 40
-11 40 6 0 6 9 0 25 -6 16 -6 25 1 25 6 0 6 6 -1 19 -6 12 -7 29 -1 43 4 13 5
32 1 43 -4 11 -3 25 2 32 6 7 5 14 -2 18 -6 3 -8 11 -4 16 9 16 11 70 2 75 -4
3 -3 16 2 29 6 16 6 25 0 25 -6 0 -6 9 0 25 6 16 6 25 0 25 -6 0 -6 10 0 26 6
14 7 23 2 21 -4 -3 -7 8 -7 24 0 16 4 29 8 29 5 0 5 4 2 10 -9 15 -12 80 -3
80 4 0 7 3 7 8 -1 4 -1 12 0 17 1 7 228 10 661 9 l660 0 1 30 c0 17 2 312 3
656 2 344 3 630 4 636 1 7 104 10 330 10 l327 -1 3 -55z m4112 46 c64 -12 85
-18 116 -31 18 -7 35 -11 38 -7 3 3 6 0 6 -6 0 -7 6 -12 13 -12 16 0 127 -71
127 -81 0 -5 6 -9 13 -9 6 0 32 -23 57 -51 25 -28 51 -57 58 -64 6 -7 12 -18
12 -23 0 -6 3 -12 8 -14 9 -4 73 -135 77 -160 2 -10 6 -22 9 -27 11 -16 20
-117 19 -192 -3 -198 -98 -379 -270 -517 -15 -12 -40 -28 -55 -34 -16 -7 -28
-16 -28 -20 0 -5 -8 -8 -18 -8 -10 0 -22 -3 -26 -7 -4 -5 -11 -8 -14 -9 -4 0
-20 -6 -37 -13 -30 -13 -43 -16 -105 -28 -64 -12 -195 -7 -276 11 -29 6 -158
57 -164 65 -3 3 -23 18 -46 33 -41 26 -111 91 -152 141 -48 59 -117 200 -115
237 0 3 -4 16 -9 30 -20 53 -17 203 6 305 31 137 156 315 271 385 22 13 42 27
45 30 5 6 107 51 125 55 5 1 30 7 54 14 23 7 49 10 57 7 8 -3 14 -2 14 2 0 8
147 7 190 -2z m1351 -2002 c19 -4 36 -8 39 -9 57 -12 172 -66 206 -96 11 -11
24 -19 29 -19 28 0 205 -222 205 -257 0 -3 7 -19 15 -36 19 -43 41 -144 40
-190 0 -20 5 -37 10 -37 7 0 7 -3 0 -8 -5 -4 -10 -25 -11 -47 -1 -63 -11 -117
-35 -181 -22 -59 -31 -76 -78 -149 -32 -49 -125 -145 -141 -145 -6 0 -8 -4 -5
-10 3 -5 -1 -10 -9 -10 -9 0 -16 -4 -16 -10 0 -5 -4 -10 -10 -10 -5 0 -32 -13
-60 -30 -27 -16 -50 -27 -50 -24 0 2 -13 -2 -29 -11 -68 -35 -236 -49 -352
-30 -21 4 -42 7 -46 7 -26 3 -151 63 -200 96 -58 40 -163 138 -163 153 0 4 -6
14 -13 21 -12 12 -22 30 -73 129 -7 14 -18 48 -24 75 -7 27 -14 58 -16 69 -12
52 -4 199 15 267 23 86 47 144 61 153 5 3 10 13 10 21 0 9 6 21 13 29 23 25
47 55 47 61 0 12 88 88 151 129 79 53 151 83 239 99 69 14 195 13 251 0z"/>
</g>
</svg>
