<svg width="172" height="31" viewBox="0 0 172 31" fill="none" xmlns="http://www.w3.org/2000/svg">
<path d="M40.9557 24.0209L38.685 8.06252C38.1017 3.95835 34.5811 0.916687 30.4355 0.916687H11.5615C7.41593 0.916687 3.8953 3.95835 3.312 8.06252L1.04129 24.0209C0.582983 27.2292 3.06201 30.0834 6.29099 30.0834C7.70758 30.0834 9.04084 29.5209 10.0408 28.5209L14.7488 23.8334H27.2481L31.9354 28.5209C32.9353 29.5209 34.2894 30.0834 35.6852 30.0834C38.935 30.0834 41.414 27.2292 40.9557 24.0209ZM18.9153 13.4167H14.7488V17.5834H12.6656V13.4167H8.4992V11.3334H12.6656V7.16669H14.7488V11.3334H18.9153V13.4167ZM27.2481 11.3334C26.1024 11.3334 25.1649 10.3959 25.1649 9.25002C25.1649 8.10419 26.1024 7.16669 27.2481 7.16669C28.3939 7.16669 29.3314 8.10419 29.3314 9.25002C29.3314 10.3959 28.3939 11.3334 27.2481 11.3334ZM31.4146 17.5834C30.2688 17.5834 29.3314 16.6459 29.3314 15.5C29.3314 14.3542 30.2688 13.4167 31.4146 13.4167C32.5603 13.4167 33.4978 14.3542 33.4978 15.5C33.4978 16.6459 32.5603 17.5834 31.4146 17.5834Z" fill="#2A7AE4"/>
<path d="M124.081 22.5C122.664 23.9167 121.014 24.625 119.131 24.625C117.964 24.625 116.864 24.3917 115.831 23.925C114.814 23.4584 113.923 22.8167 113.156 22C112.406 21.1834 111.806 20.225 111.356 19.125C110.923 18.0084 110.706 16.8084 110.706 15.525C110.706 14.3084 110.923 13.1667 111.356 12.1C111.806 11.0167 112.415 10.075 113.181 9.27503C113.964 8.45836 114.881 7.8167 115.931 7.35003C116.981 6.8667 118.123 6.62503 119.356 6.62503C121.022 6.62503 122.447 6.97503 123.631 7.67503C124.831 8.37503 125.73 9.3167 126.33 10.5L123.756 12.4C123.306 11.5167 122.672 10.8417 121.856 10.375C121.056 9.90836 120.181 9.67503 119.231 9.67503C118.481 9.67503 117.789 9.83336 117.156 10.15C116.539 10.4667 116.006 10.9 115.556 11.45C115.123 12 114.781 12.6334 114.531 13.35C114.298 14.0667 114.181 14.825 114.181 15.625C114.181 16.4584 114.314 17.2417 114.581 17.975C114.848 18.6917 115.214 19.3167 115.681 19.85C116.148 20.3834 116.698 20.8084 117.331 21.125C117.981 21.425 118.681 21.575 119.431 21.575C121.147 21.575 122.697 20.7667 124.081 19.15V17.9H120.506V15.375H126.93V24.5H124.081V22.5Z" fill="#464646"/>
<path d="M135.62 24.75C134.57 24.75 133.62 24.575 132.77 24.225C131.92 23.8584 131.195 23.3667 130.595 22.75C129.995 22.1334 129.529 21.4167 129.195 20.6C128.879 19.7834 128.721 18.925 128.721 18.025C128.721 17.0917 128.879 16.2167 129.195 15.4C129.512 14.5667 129.97 13.8417 130.57 13.225C131.17 12.5917 131.895 12.0917 132.745 11.725C133.612 11.3584 134.579 11.175 135.645 11.175C136.712 11.175 137.662 11.3584 138.495 11.725C139.345 12.0917 140.062 12.5834 140.645 13.2C141.245 13.8167 141.695 14.5334 141.995 15.35C142.311 16.1667 142.47 17.0167 142.47 17.9C142.47 18.1167 142.461 18.325 142.445 18.525C142.445 18.725 142.428 18.8917 142.395 19.025H132.27C132.32 19.5417 132.445 20 132.645 20.4C132.845 20.8 133.104 21.1417 133.42 21.425C133.737 21.7084 134.095 21.925 134.495 22.075C134.895 22.225 135.312 22.3 135.745 22.3C136.412 22.3 137.037 22.1417 137.62 21.825C138.22 21.4917 138.628 21.0584 138.845 20.525L141.72 21.325C141.236 22.325 140.462 23.15 139.395 23.8C138.345 24.4334 137.087 24.75 135.62 24.75ZM139.02 16.85C138.937 15.8667 138.57 15.0834 137.92 14.5C137.287 13.9 136.512 13.6 135.595 13.6C135.145 13.6 134.72 13.6834 134.32 13.85C133.937 14 133.595 14.2167 133.295 14.5C132.995 14.7834 132.745 15.125 132.545 15.525C132.362 15.925 132.254 16.3667 132.22 16.85H139.02Z" fill="#464646"/>
<path d="M150.585 24.75C149.535 24.75 148.585 24.575 147.735 24.225C146.885 23.8584 146.16 23.3667 145.56 22.75C144.96 22.1334 144.494 21.4167 144.16 20.6C143.844 19.7834 143.686 18.925 143.686 18.025C143.686 17.0917 143.844 16.2167 144.16 15.4C144.477 14.5667 144.935 13.8417 145.535 13.225C146.135 12.5917 146.86 12.0917 147.71 11.725C148.577 11.3584 149.543 11.175 150.61 11.175C151.677 11.175 152.627 11.3584 153.46 11.725C154.31 12.0917 155.027 12.5834 155.61 13.2C156.21 13.8167 156.66 14.5334 156.96 15.35C157.276 16.1667 157.435 17.0167 157.435 17.9C157.435 18.1167 157.426 18.325 157.41 18.525C157.41 18.725 157.393 18.8917 157.36 19.025H147.235C147.285 19.5417 147.41 20 147.61 20.4C147.81 20.8 148.069 21.1417 148.385 21.425C148.702 21.7084 149.06 21.925 149.46 22.075C149.86 22.225 150.277 22.3 150.71 22.3C151.377 22.3 152.002 22.1417 152.585 21.825C153.185 21.4917 153.593 21.0584 153.81 20.525L156.685 21.325C156.201 22.325 155.427 23.15 154.36 23.8C153.31 24.4334 152.052 24.75 150.585 24.75ZM153.985 16.85C153.902 15.8667 153.535 15.0834 152.885 14.5C152.252 13.9 151.477 13.6 150.56 13.6C150.11 13.6 149.685 13.6834 149.285 13.85C148.902 14 148.56 14.2167 148.26 14.5C147.96 14.7834 147.71 15.125 147.51 15.525C147.327 15.925 147.219 16.3667 147.185 16.85H153.985Z" fill="#464646"/>
<path d="M168.425 24.5L164.625 18.825L162.825 20.6V24.5H159.475V6.25003H162.825V17.325L168.075 11.425H171.65L166.775 16.975L172 24.5H168.425Z" fill="#464646"/>
<path d="M52.7717 6.75003H55.8215L62.5711 24.5H59.0213L57.3714 20.075H51.1718L49.5469 24.5H45.9971L52.7717 6.75003ZM56.7465 17.65L54.2966 10.675L51.7467 17.65H56.7465Z" fill="#2A7AE4"/>
<path d="M64.1679 6.25003H67.5177V20.3C67.5177 20.7834 67.6344 21.1584 67.8677 21.425C68.101 21.6917 68.4343 21.825 68.8677 21.825C69.0676 21.825 69.2843 21.7917 69.5176 21.725C69.7676 21.6584 70.0009 21.575 70.2176 21.475L70.6676 24.025C70.2176 24.2417 69.6926 24.4084 69.0926 24.525C68.4927 24.6417 67.951 24.7 67.4677 24.7C66.4178 24.7 65.6012 24.425 65.0179 23.875C64.4512 23.3084 64.1679 22.5084 64.1679 21.475V6.25003Z" fill="#2A7AE4"/>
<path d="M76.1268 24.75C74.7769 24.75 73.7519 24.3167 73.052 23.45C72.352 22.5834 72.002 21.3 72.002 19.6V11.4H75.3519V18.875C75.3519 20.8917 76.0768 21.9 77.5267 21.9C78.1767 21.9 78.8017 21.7084 79.4016 21.325C80.0183 20.925 80.5182 20.325 80.9015 19.525V11.4H84.2514V20.65C84.2514 21 84.3097 21.25 84.4263 21.4C84.5597 21.55 84.768 21.6334 85.0513 21.65V24.5C84.718 24.5667 84.4347 24.6084 84.2014 24.625C83.9847 24.6417 83.7847 24.65 83.6014 24.65C83.0014 24.65 82.5098 24.5167 82.1265 24.25C81.7598 23.9667 81.5432 23.5834 81.4765 23.1L81.4015 22.05C80.8182 22.95 80.0683 23.625 79.1516 24.075C78.235 24.525 77.2268 24.75 76.1268 24.75Z" fill="#2A7AE4"/>
<path d="M95.3798 14.3C94.3632 14.3167 93.4549 14.5167 92.655 14.9C91.855 15.2667 91.2801 15.825 90.9301 16.575V24.5H87.5803V11.4H90.6551V14.2C90.8884 13.75 91.1634 13.35 91.48 13C91.7967 12.6334 92.1383 12.3167 92.505 12.05C92.8716 11.7834 93.2383 11.5834 93.6049 11.45C93.9882 11.3 94.3549 11.225 94.7049 11.225C94.8882 11.225 95.0215 11.225 95.1048 11.225C95.2048 11.225 95.2965 11.2334 95.3798 11.25V14.3Z" fill="#2A7AE4"/>
<path d="M100.652 24.75C100.018 24.75 99.4267 24.65 98.8767 24.45C98.3267 24.2334 97.8518 23.9417 97.4518 23.575C97.0518 23.1917 96.7352 22.75 96.5018 22.25C96.2852 21.75 96.1769 21.2 96.1769 20.6C96.1769 19.9834 96.3102 19.4167 96.5768 18.9C96.8601 18.3667 97.2435 17.9167 97.7268 17.55C98.2267 17.1834 98.8184 16.9 99.5017 16.7C100.185 16.4834 100.935 16.375 101.752 16.375C102.335 16.375 102.901 16.425 103.451 16.525C104.018 16.625 104.518 16.7667 104.951 16.95V16.2C104.951 15.3334 104.701 14.6667 104.201 14.2C103.718 13.7334 102.993 13.5 102.027 13.5C101.327 13.5 100.643 13.625 99.9766 13.875C99.31 14.125 98.6267 14.4917 97.9268 14.975L96.9018 12.85C98.585 11.7334 100.402 11.175 102.352 11.175C104.235 11.175 105.693 11.6417 106.726 12.575C107.776 13.4917 108.301 14.825 108.301 16.575V20.65C108.301 21 108.359 21.25 108.476 21.4C108.609 21.55 108.818 21.6334 109.101 21.65V24.5C108.534 24.6167 108.043 24.675 107.626 24.675C106.993 24.675 106.501 24.5334 106.151 24.25C105.818 23.9667 105.61 23.5917 105.526 23.125L105.451 22.4C104.868 23.1667 104.16 23.75 103.326 24.15C102.493 24.55 101.602 24.75 100.652 24.75ZM101.602 22.3C102.168 22.3 102.701 22.2 103.201 22C103.718 21.8 104.118 21.5334 104.401 21.2C104.768 20.9167 104.951 20.6 104.951 20.25V18.75C104.551 18.6 104.118 18.4834 103.651 18.4C103.185 18.3 102.735 18.25 102.302 18.25C101.435 18.25 100.727 18.45 100.177 18.85C99.6267 19.2334 99.3517 19.725 99.3517 20.325C99.3517 20.8917 99.5683 21.3667 100.002 21.75C100.435 22.1167 100.968 22.3 101.602 22.3Z" fill="#2A7AE4"/>
</svg>
